# Wavefront Obj file
# 
# verts: 128 uv-s: 240
mtllib Box_final.mtl

g RetopoGroup1

v 0.588912 -0.336675 3.167073
v -0.657422 -0.391863 2.802465
v 0.660249 0.035542 3.162868
v -0.650785 0.115074 2.808201
v 0.661171 0.116604 2.812105
v 0.659288 -0.391116 2.806550
v 0.587960 0.037690 3.167156
v 0.661122 0.046515 3.106874
v 0.589660 0.032339 3.094811
v 0.588995 -0.387471 3.166053
v 0.587789 0.111069 3.166762
v 0.434324 0.110675 3.165831
v 0.434056 -0.386172 3.166000
v 0.656147 -0.391672 2.687928
v 0.659823 0.117707 2.686047
v -0.650051 0.116276 2.687884
v -0.656281 -0.391895 2.684699
v 0.590599 -0.390674 3.113392
v 0.651323 0.183093 2.809631
v -0.646679 0.181296 2.690806
v -0.647309 0.180724 2.807803
v 0.591561 0.116115 3.107137
v 0.658466 -0.388172 3.112869
v 0.662167 0.114405 3.106545
v 0.426395 -0.388733 3.113967
v -0.429104 -0.388074 3.114065
v 0.432549 0.112821 3.107901
v -0.434121 0.112960 3.107898
v 0.589517 -0.333471 3.115968
v 0.658945 -0.335379 3.112737
v 0.658265 -0.330489 3.165205
v -0.650003 0.115895 3.105871
v -0.659712 -0.388274 3.112073
v -0.593109 -0.390915 3.112833
v -0.593218 0.117253 3.106453
v -0.588482 0.110826 3.167111
v -0.436316 0.110532 3.167162
v -0.437263 -0.386814 3.167031
v -0.588083 -0.388037 3.166703
v -0.590440 -0.331666 3.166327
v -0.591439 -0.328330 3.113479
v -0.658557 -0.334118 3.113059
v -0.661560 -0.328893 3.162935
v -0.590608 0.034573 3.165681
v -0.659760 0.032212 3.164417
v -0.593615 0.033345 3.100367
v -0.661836 0.035590 3.104397
v 0.588912 -0.336675 -0.052195
v -0.657422 -0.391863 0.312413
v 0.660249 0.035542 -0.047991
v -0.650785 0.115074 0.306677
v 0.659288 -0.391116 0.308328
v 0.587960 0.037690 -0.052278
v 0.661122 0.046515 0.008004
v 0.589660 0.032339 0.020066
v 0.588995 -0.387471 -0.051176
v 0.587789 0.111069 -0.051884
v 0.434324 0.110675 -0.050954
v 0.434056 -0.386172 -0.051122
v 0.656147 -0.391672 0.426950
v 0.659823 0.117707 0.428831
v -0.650051 0.116276 0.426994
v -0.656281 -0.391895 0.430178
v 0.590599 -0.390674 0.001485
v 0.651323 0.183093 0.305246
v 0.654525 0.183109 0.424494
v -0.646679 0.181296 0.424072
v 0.591561 0.116115 0.007741
v 0.658466 -0.388172 0.002008
v 0.662167 0.114405 0.008333
v 0.426395 -0.388733 0.000911
v -0.429104 -0.388074 0.000813
v 0.432549 0.112821 0.006977
v -0.434121 0.112960 0.006980
v 0.589517 -0.333471 -0.001091
v 0.658945 -0.335379 0.002140
v 0.658265 -0.330489 -0.050327
v -0.650003 0.115895 0.009007
v -0.659712 -0.388274 0.002805
v -0.593109 -0.390915 0.002045
v -0.593218 0.117253 0.008425
v -0.588482 0.110826 -0.052233
v -0.436316 0.110532 -0.052285
v -0.437263 -0.386814 -0.052153
v -0.588083 -0.388037 -0.051825
v -0.590440 -0.331666 -0.051449
v -0.591439 -0.328330 0.001399
v -0.658557 -0.334118 0.001819
v -0.661560 -0.328893 -0.048057
v -0.590608 0.034573 -0.050804
v -0.659760 0.032212 -0.049539
v -0.593615 0.033345 0.014510
v -0.661836 0.035590 0.010480
v 0.661171 0.116604 0.302773
v -0.647309 0.180724 0.307074
v 0.654525 0.183109 2.690384
# 96 positions

vt 0.775694 0.590648
vt 0.775940 0.566202
vt 0.789169 0.566793
vt 0.789051 0.590564
vt 0.775940 0.106859
vt 0.775694 0.082414
vt 0.789051 0.082498
vt 0.789169 0.106268
vt 0.758831 0.010000
vt 0.759518 0.022201
vt 0.684401 0.020470
vt 0.685465 0.010318
vt 0.758828 0.663062
vt 0.685462 0.662741
vt 0.684399 0.652590
vt 0.759517 0.650860
vt 0.672688 0.565554
vt 0.672687 0.107505
vt 0.591065 0.437401
vt 0.566829 0.437298
vt 0.565960 0.423966
vt 0.591573 0.423745
vt 0.662840 0.407281
vt 0.651462 0.409510
vt 0.652659 0.331919
vt 0.663320 0.332913
vt 0.081748 0.423745
vt 0.107361 0.423966
vt 0.106493 0.437298
vt 0.082257 0.437401
vt 0.020661 0.331919
vt 0.021859 0.409510
vt 0.010482 0.407281
vt 0.010000 0.332913
vt 0.590452 0.320591
vt 0.651395 0.423305
vt 0.652687 0.321193
vt 0.566343 0.320473
vt 0.082868 0.320591
vt 0.106977 0.320473
vt 0.020633 0.321193
vt 0.021927 0.423305
vt 0.672691 0.083578
vt 0.673396 0.020672
vt 0.776011 0.021937
vt 0.672691 0.589482
vt 0.776009 0.651125
vt 0.673394 0.652387
vt 0.566713 0.446341
vt 0.566058 0.712986
vt 0.108005 0.712985
vt 0.107349 0.446341
vt 0.653273 0.493019
vt 0.653294 0.666830
vt 0.589985 0.713219
vt 0.653044 0.700155
vt 0.652893 0.713698
vt 0.590814 0.445702
vt 0.653155 0.459655
vt 0.653051 0.445857
vt 0.020765 0.666831
vt 0.020788 0.493019
vt 0.084079 0.713219
vt 0.021023 0.700158
vt 0.021174 0.713700
vt 0.020906 0.459656
vt 0.083248 0.445702
vt 0.021010 0.445858
vt 0.703511 0.943338
vt 0.643337 0.989692
vt 0.642967 0.723139
vt 0.703777 0.767260
vt 0.703302 0.975651
vt 0.703160 0.990000
vt 0.703552 0.734920
vt 0.703448 0.723379
vt 0.629814 0.987724
vt 0.629631 0.723879
vt 0.605860 0.723990
vt 0.605586 0.988357
vt 0.592267 0.989402
vt 0.592639 0.723273
vt 0.133669 0.989401
vt 0.133295 0.723273
vt 0.096121 0.987724
vt 0.096303 0.723879
vt 0.120073 0.723990
vt 0.120349 0.988357
vt 0.022422 0.943337
vt 0.022140 0.767254
vt 0.082966 0.723139
vt 0.082598 0.989691
vt 0.022387 0.734918
vt 0.022490 0.723377
vt 0.022632 0.975650
vt 0.022775 0.989999
vt 0.244046 0.196172
vt 0.244901 0.298084
vt 0.068820 0.297429
vt 0.070235 0.195631
vt 0.254740 0.196494
vt 0.256665 0.297419
vt 0.286383 0.205964
vt 0.287600 0.282015
vt 0.302303 0.281305
vt 0.300500 0.206960
vt 0.287841 0.296921
vt 0.286208 0.195644
vt 0.056787 0.296625
vt 0.059344 0.195611
vt 0.027929 0.205964
vt 0.025870 0.280345
vt 0.025882 0.295846
vt 0.028720 0.194529
vt 0.383848 0.298083
vt 0.384703 0.196171
vt 0.558515 0.195630
vt 0.559930 0.297428
vt 0.569406 0.195610
vt 0.571962 0.296623
vt 0.600821 0.205964
vt 0.602880 0.280344
vt 0.600030 0.194529
vt 0.602868 0.295845
vt 0.372084 0.297419
vt 0.374009 0.196493
vt 0.342365 0.205964
vt 0.341148 0.282014
vt 0.340907 0.296921
vt 0.342540 0.195644
vt 0.618310 0.291625
vt 0.618722 0.308114
vt 0.607405 0.310376
vt 0.604548 0.293524
vt 0.616913 0.279484
vt 0.616156 0.279833
vt 0.615253 0.296901
vt 0.615297 0.206134
vt 0.615357 0.195927
vt 0.601687 0.195239
vt 0.603752 0.182687
vt 0.617086 0.185057
vt 0.611581 0.206008
vt 0.610970 0.193303
vt 0.010064 0.699134
vt 0.010000 0.668491
vt 0.010088 0.766832
vt 0.010000 0.735927
vt 0.010475 0.974883
vt 0.010645 0.943704
vt 0.010203 0.491468
vt 0.010188 0.459988
vt 0.318731 0.305056
vt 0.325107 0.292823
vt 0.339607 0.296676
vt 0.331397 0.311799
vt 0.328759 0.297813
vt 0.326460 0.280759
vt 0.326446 0.281306
vt 0.331965 0.206230
vt 0.331868 0.194595
vt 0.341177 0.195629
vt 0.327067 0.196318
vt 0.326338 0.185617
vt 0.340047 0.184048
vt 0.328249 0.206960
vt 0.024187 0.293528
vt 0.021315 0.310377
vt 0.010000 0.308106
vt 0.010426 0.291618
vt 0.011836 0.279480
vt 0.013496 0.296903
vt 0.012593 0.279834
vt 0.013453 0.206135
vt 0.027063 0.195239
vt 0.013393 0.195928
vt 0.011663 0.185058
vt 0.024997 0.182687
vt 0.017780 0.193303
vt 0.017169 0.206008
vt 0.664059 0.668482
vt 0.664004 0.699125
vt 0.715942 0.735950
vt 0.715830 0.766864
vt 0.715289 0.943704
vt 0.715460 0.974884
vt 0.663874 0.459988
vt 0.663858 0.491468
vt 0.297359 0.311800
vt 0.289144 0.296677
vt 0.303643 0.292821
vt 0.310023 0.305052
vt 0.302289 0.280760
vt 0.299990 0.297813
vt 0.296881 0.194595
vt 0.296784 0.206230
vt 0.288692 0.184047
vt 0.302401 0.185616
vt 0.301681 0.196318
vt 0.287572 0.195628
# 200 texture coordinates

vn 0.316179 -0.298415 0.900544
vn -0.838863 -0.544300 -0.006748
vn 0.551425 0.571785 0.607448
vn -0.763190 0.619297 0.184423
vn 0.774054 0.602691 0.193915
vn 0.832078 -0.554658 -0.001202
vn 0.279658 0.293526 0.914130
vn 0.899952 0.282862 0.331777
vn 0.512690 0.551820 0.657757
vn 0.556937 -0.567772 0.606182
vn 0.552256 0.556837 0.620440
vn -0.395652 0.391198 0.830917
vn -0.393890 -0.392653 0.831069
vn 0.551325 -0.834287 -0.002628
vn 0.889697 0.344108 -0.300049
vn -0.892195 0.336901 -0.300808
vn -0.554656 -0.832080 -0.000031
vn 0.310456 -0.894072 0.322881
vn 0.545632 0.626118 0.557012
vn -0.556830 0.616251 -0.556934
vn -0.564612 0.604945 0.561476
vn 0.283090 0.896910 0.339723
vn 0.593265 -0.574370 0.564036
vn 0.576111 0.549693 0.604925
vn -0.303040 -0.889060 0.343130
vn 0.305774 -0.889476 0.339609
vn -0.303688 0.890000 0.340109
vn 0.305576 0.888357 0.342702
vn 0.589967 -0.563653 0.578129
vn 0.901723 -0.306737 0.304645
vn 0.598987 -0.558384 0.573953
vn -0.553568 0.616143 0.560295
vn -0.596343 -0.564175 0.571036
vn -0.301684 -0.895148 0.328172
vn -0.288350 0.895764 0.338322
vn -0.546747 0.550778 0.630644
vn 0.388486 0.381164 0.838923
vn 0.391454 -0.386860 0.834927
vn -0.554625 -0.560550 0.614960
vn -0.300797 -0.294815 0.906976
vn -0.553926 -0.572840 0.604169
vn -0.906034 -0.300397 0.298100
vn -0.579463 -0.574263 0.578311
vn -0.305874 0.292413 0.906055
vn -0.589136 0.568066 0.574648
vn -0.557530 0.553729 0.618502
vn -0.894690 0.331994 0.298848
vn 0.316176 -0.298410 -0.900547
vn -0.838863 -0.544300 0.006748
vn 0.551422 0.571785 -0.607450
vn -0.763192 0.619295 -0.184424
vn 0.832078 -0.554658 0.001202
vn 0.279658 0.293525 -0.914130
vn 0.899952 0.282863 -0.331777
vn 0.512691 0.551821 -0.657755
vn 0.556939 -0.567764 -0.606188
vn 0.552258 0.556836 -0.620439
vn -0.395650 0.391198 -0.830918
vn -0.393892 -0.392645 -0.831071
vn 0.551325 -0.834286 0.002628
vn 0.889697 0.344108 0.300049
vn -0.892195 0.336901 0.300808
vn -0.554656 -0.832080 0.000031
vn 0.310457 -0.894072 -0.322882
vn 0.545635 0.626112 -0.557015
vn 0.543361 0.641304 0.541746
vn -0.556830 0.616251 0.556934
vn 0.283091 0.896910 -0.339722
vn 0.593265 -0.574369 -0.564036
vn 0.576112 0.549694 -0.604923
vn -0.303040 -0.889060 -0.343130
vn 0.305774 -0.889477 -0.339608
vn -0.303688 0.890000 -0.340108
vn 0.305576 0.888358 -0.342701
vn 0.589968 -0.563653 -0.578130
vn 0.901723 -0.306737 -0.304645
vn 0.598984 -0.558386 -0.573954
vn -0.553567 0.616146 -0.560292
vn -0.596343 -0.564175 -0.571036
vn -0.301684 -0.895148 -0.328172
vn -0.288349 0.895764 -0.338321
vn -0.546747 0.550782 -0.630640
vn 0.388484 0.381168 -0.838923
vn 0.391454 -0.386861 -0.834926
vn -0.554624 -0.560550 -0.614960
vn -0.300799 -0.294815 -0.906975
vn -0.553927 -0.572840 -0.604169
vn -0.906034 -0.300397 -0.298100
vn -0.579466 -0.574262 -0.578309
vn -0.305877 0.292414 -0.906053
vn -0.589139 0.568064 -0.574647
vn -0.557528 0.553733 -0.618500
vn -0.894689 0.331997 -0.298847
vn 0.774056 0.602689 -0.193916
vn -0.564615 0.604939 -0.561479
vn 0.543361 0.641304 -0.541746
# 96 normals

usemtl Default
f 51/1/51 62/2/62 67/3/67 95/4/95
f 16/5/16 4/6/4 21/7/21 20/8/20
f 45/9/45 47/10/47 42/11/42 43/12/43
f 91/13/91 89/14/89 88/15/88 93/16/93
f 16/5/16 62/2/62 63/17/63 17/18/17
f 65/19/65 66/20/66 61/21/61 94/22/94
f 50/23/50 54/24/54 76/25/76 77/26/77
f 5/27/5 15/28/15 96/29/96 19/30/19
f 30/31/30 8/32/8 3/33/3 31/34/31
f 54/24/54 94/22/94 52/35/52 76/25/76
f 94/22/94 54/24/54 70/36/70
f 52/35/52 69/37/69 76/25/76
f 94/22/94 61/21/61 60/38/60 52/35/52
f 6/39/6 14/40/14 15/28/15 5/27/5
f 8/32/8 30/31/30 6/39/6 5/27/5
f 6/39/6 30/31/30 23/41/23
f 5/27/5 24/42/24 8/32/8
f 14/40/14 60/38/60 61/21/61 15/28/15
f 2/43/2 4/6/4 16/5/16 17/18/17
f 42/11/42 47/10/47 4/6/4 2/43/2
f 2/43/2 33/44/33 42/11/42
f 4/6/4 47/10/47 32/45/32
f 88/15/88 49/46/49 51/1/51 93/16/93
f 49/46/49 63/17/63 62/2/62 51/1/51
f 51/1/51 78/47/78 93/16/93
f 49/46/49 88/15/88 79/48/79
f 14/49/14 17/50/17 63/51/63 60/52/60
f 25/53/25 26/54/26 17/50/17 14/49/14
f 2/55/2 17/50/17 26/54/26 34/56/34
f 2/55/2 34/56/34 33/57/33
f 14/49/14 6/58/6 18/59/18 25/53/25
f 6/58/6 23/60/23 18/59/18
f 60/52/60 63/51/63 72/61/72 71/62/71
f 72/61/72 63/51/63 49/63/49 80/64/80
f 49/63/49 79/65/79 80/64/80
f 64/66/64 52/67/52 60/52/60 71/62/71
f 52/67/52 64/66/64 69/68/69
f 27/69/27 5/70/5 4/71/4 28/72/28
f 5/70/5 27/69/27 22/73/22
f 5/70/5 22/73/22 24/74/24
f 28/72/28 4/71/4 35/75/35
f 4/71/4 32/76/32 35/75/35
f 4/71/4 5/70/5 19/77/19 21/78/21
f 20/79/20 21/78/21 19/77/19 96/80/96
f 15/81/15 16/82/16 20/79/20 96/80/96
f 16/82/16 15/81/15 61/83/61 62/84/62
f 65/85/65 95/86/95 67/87/67 66/88/66
f 62/84/62 61/83/61 66/88/66 67/87/67
f 73/89/73 74/90/74 51/91/51 94/92/94
f 51/91/51 74/90/74 81/93/81
f 51/91/51 81/93/81 78/94/78
f 73/89/73 94/92/94 68/95/68
f 68/95/68 94/92/94 70/96/70
f 65/85/65 94/92/94 51/91/51 95/86/95
f 25/97/25 27/98/27 28/99/28 26/100/26
f 25/97/25 13/101/13 12/102/12 27/98/27
f 1/103/1 7/104/7 12/102/12 13/101/13
f 3/105/3 7/104/7 1/103/1 31/106/31
f 7/104/7 11/107/11 12/102/12
f 1/103/1 13/101/13 10/108/10
f 26/100/26 28/99/28 37/109/37 38/110/38
f 40/111/40 38/110/38 37/109/37 44/112/44
f 37/109/37 36/113/36 44/112/44
f 38/110/38 40/111/40 39/114/39
f 73/115/73 71/116/71 72/117/72 74/118/74
f 72/117/72 84/119/84 83/120/83 74/118/74
f 83/120/83 84/119/84 86/121/86 90/122/90
f 84/119/84 85/123/85 86/121/86
f 83/120/83 90/122/90 82/124/82
f 58/125/58 59/126/59 71/116/71 73/115/73
f 48/127/48 59/126/59 58/125/58 53/128/53
f 53/128/53 58/125/58 57/129/57
f 48/127/48 56/130/56 59/126/59
f 93/131/93 78/132/78 81/133/81 92/134/92
f 90/122/90 91/135/91 93/131/93 92/134/92
f 82/124/82 90/122/90 92/136/92 81/137/81
f 89/138/89 91/135/91 90/122/90 86/121/86
f 88/139/88 89/138/89 86/121/86 87/140/87
f 88/139/88 87/140/87 80/141/80 79/142/79
f 87/143/87 86/121/86 85/123/85 80/144/80
f 80/64/80 85/145/85 84/146/84 72/61/72
f 83/147/83 82/148/82 81/93/81 74/90/74
f 73/89/73 68/95/68 57/149/57 58/150/58
f 64/66/64 71/62/71 59/151/59 56/152/56
f 70/153/70 54/154/54 55/155/55 68/156/68
f 53/128/53 57/129/57 68/157/68 55/158/55
f 55/155/55 54/154/54 50/159/50 53/128/53
f 75/160/75 64/161/64 56/130/56 48/127/48
f 75/162/75 76/163/76 69/164/69 64/165/64
f 77/166/77 76/163/76 75/162/75 48/127/48
f 53/128/53 50/159/50 77/166/77 48/127/48
f 46/167/46 35/168/35 32/169/32 47/170/47
f 46/167/46 47/170/47 45/171/45 44/112/44
f 35/172/35 46/173/46 44/112/44 36/113/36
f 40/111/40 44/112/44 45/171/45 43/174/43
f 41/175/41 40/111/40 43/174/43 42/176/42
f 33/177/33 34/178/34 41/175/41 42/176/42
f 34/179/34 39/114/39 40/111/40 41/180/41
f 26/54/26 38/181/38 39/182/39 34/56/34
f 28/72/28 35/75/35 36/183/36 37/184/37
f 12/185/12 11/186/11 22/73/22 27/69/27
f 10/187/10 13/188/13 25/53/25 18/59/18
f 22/189/22 9/190/9 8/191/8 24/192/24
f 9/193/9 22/194/22 11/107/11 7/104/7
f 7/104/7 3/105/3 8/191/8 9/190/9
f 1/103/1 10/108/10 18/195/18 29/196/29
f 18/197/18 23/198/23 30/199/30 29/200/29
f 1/103/1 29/200/29 30/199/30 31/106/31

g RetopoGroup2

v -0.471193 -0.013515 0.009528
v -0.157111 -0.090447 -0.006933
v 0.156970 -0.090447 -0.006871
v 0.471052 -0.009089 0.012456
v -0.471193 0.016907 0.009528
v -0.157111 -0.045917 -0.006933
v 0.156970 -0.050934 -0.006871
v 0.471052 0.025986 0.012456
v 0.471344 -0.009089 3.135610
v 0.157263 -0.090447 3.159712
v -0.156819 -0.090447 3.161407
v -0.470900 -0.013515 3.140041
v 0.471344 0.025986 3.135610
v 0.157263 -0.050934 3.159712
v -0.156819 -0.045917 3.161407
v -0.470900 0.016907 3.140041
v 0.471052 0.025986 3.102422
v 0.156970 -0.050934 3.121749
v -0.157111 -0.045917 3.121810
v -0.471193 0.016907 3.105350
v 0.471052 -0.009089 3.102422
v 0.156970 -0.090447 3.121749
v -0.157111 -0.090447 3.121810
v -0.471193 -0.013515 3.105350
v -0.470900 0.016907 -0.025163
v -0.156819 -0.045917 -0.046529
v 0.157263 -0.050934 -0.044834
v 0.471344 0.025986 -0.020733
v -0.470900 -0.013515 -0.025163
v -0.156819 -0.090447 -0.046529
v 0.157263 -0.090447 -0.044834
v 0.471344 -0.009089 -0.020733
# 32 positions

vt 0.766412 0.860565
vt 0.774313 0.860960
vt 0.773904 0.923780
vt 0.765795 0.924301
vt 0.782971 0.924262
vt 0.782577 0.860232
vt 0.790526 0.860244
vt 0.791044 0.924611
vt 0.732185 0.758186
vt 0.734006 0.692115
vt 0.740397 0.692547
vt 0.740134 0.758179
vt 0.733228 0.887943
vt 0.731624 0.822553
vt 0.739697 0.822210
vt 0.740001 0.887347
vt 0.756872 0.822259
vt 0.752872 0.887564
vt 0.745937 0.886618
vt 0.748764 0.821733
vt 0.753611 0.692963
vt 0.756298 0.758523
vt 0.748397 0.758913
vt 0.746990 0.693650
vt 0.727279 0.886905
vt 0.722624 0.821991
vt 0.724174 0.758718
vt 0.782356 0.794599
vt 0.775762 0.795698
vt 0.782623 0.989399
vt 0.776688 0.988666
vt 0.795473 0.795698
vt 0.798536 0.860781
vt 0.788748 0.794171
vt 0.800044 0.924055
vt 0.795346 0.988965
vt 0.789396 0.990000
vt 0.727279 0.693637
vt 0.769142 0.795006
vt 0.769754 0.989614
# 40 texture coordinates

vn -0.132245 -0.691758 0.709917
vn -0.066100 -0.701012 0.710079
vn 0.067205 -0.699780 0.711190
vn 0.134690 -0.689148 0.711993
vn 0.174734 0.689299 0.703090
vn 0.093498 0.700487 0.707514
vn -0.100502 0.699065 0.707960
vn -0.210216 0.682527 0.699976
vn 0.229366 -0.678752 0.697630
vn 0.117835 -0.697396 0.706932
vn -0.106409 -0.698064 0.708084
vn -0.214371 -0.680677 0.700517
vn -0.114947 0.692477 0.712224
vn -0.049760 0.701288 0.711139
vn 0.053174 0.703334 0.708868
vn 0.091445 0.698568 0.709676
vn -0.210216 0.682527 -0.699976
vn -0.100501 0.699065 -0.707960
vn 0.093498 0.700487 -0.707514
vn 0.174732 0.689299 -0.703090
vn 0.134690 -0.689148 -0.711993
vn 0.067206 -0.699780 -0.711190
vn -0.066100 -0.701012 -0.710079
vn -0.132247 -0.691758 -0.709917
vn 0.091445 0.698568 -0.709676
vn 0.053174 0.703334 -0.708868
vn -0.049761 0.701288 -0.711139
vn -0.114949 0.692477 -0.712224
vn -0.214371 -0.680677 -0.700517
vn -0.106410 -0.698064 -0.708084
vn 0.117834 -0.697396 -0.706932
vn 0.229364 -0.678752 -0.697630
# 32 normals

usemtl Default
f 118/201/118 106/202/106 107/203/107 119/204/119
f 111/205/111 110/206/110 114/207/114 115/208/115
f 103/209/103 104/210/104 124/211/124 123/212/123
f 101/213/101 102/214/102 122/215/122 121/216/121
f 98/217/98 97/218/97 125/219/125 126/220/126
f 100/221/100 99/222/99 127/223/127 128/224/128
f 102/214/102 101/213/101 97/225/97 98/226/98
f 103/209/103 102/214/102 98/226/98 99/227/99
f 109/228/109 110/206/110 106/202/106 105/229/105
f 110/206/110 111/205/111 107/203/107 106/202/106
f 111/205/111 112/230/112 108/231/108 107/203/107
f 117/232/117 118/233/118 114/207/114 113/234/113
f 118/233/118 119/235/119 115/208/115 114/207/114
f 119/235/119 120/236/120 116/237/116 115/208/115
f 104/210/104 103/209/103 99/227/99 100/238/100
f 126/220/126 125/219/125 121/216/121 122/215/122
f 105/229/105 106/202/106 118/201/118 117/239/117
f 127/223/127 126/220/126 122/215/122 123/212/123
f 107/203/107 108/231/108 120/240/120 119/204/119
f 112/230/112 111/205/111 115/208/115 116/237/116
f 128/224/128 127/223/127 123/212/123 124/211/124
f 110/206/110 109/228/109 113/234/113 114/207/114
f 102/214/102 103/209/103 123/212/123 122/215/122
f 98/217/98 126/220/126 127/223/127 99/222/99

# 132 faces
